Nederlands gesproken,
In Afrika wordt de jonge leeuw Simba geboren als zoon van de leeuwenkoning Mufasa. Dat zint Mufasa's jaloerse broer Scar absoluut niet, die nu niet langer de eerste troonopvolger is. Terwijl Simba een onbezorgde jeugd geniet in zijn vaders koninkrijk, smeedt Scar samen met een groep hyena's een plan om zowel Mufasa als Simba uit de weg te ruimen, en zo zelf de macht te kunnen grijpen.

Dutch Spoken,
Tricked into thinking he killed his father, a guilt ridden lion cub flees into exile and abandons his identity as the future King. 

------------------ Dutch Friends ------------------
You can find my Friends at: http://www.Film-Test.nl 
------ They got my dutch subs ----- and more ------

General:

Complete name                    : The Lion King\The Lion King.avi
Format                           : AVI
Format/Info                      : Audio Video Interleave
File size                        : 1.40 GiB
Duration                         : 1h 25mn
Overall bit rate                 : 2 345 Kbps

Video:

Format                           : MPEG-4 Visual
Format profile                   : Simple@L3
Format settings, BVOP            : No
Format settings, QPel            : No
Format settings, GMC             : No warppoints
Format settings, Matrix          : Default (H.263)
Codec ID                         : XVID
Codec ID/Hint                    : XviD
Duration                         : 1h 25mn
Bit rate                         : 1 950 Kbps
Width                            : 704 pixels
Height                           : 424 pixels
Display aspect ratio             : 1.660
Frame rate                       : 25.000 fps
Color space                      : YUV
Chroma subsampling               : 4:2:0
Bit depth                        : 8 bits
Scan type                        : Progressive
Compression mode                 : Lossy
Bits/(Pixel*Frame)               : 0.261
Stream size                      : 1.16 GiB (83%)
Writing library                  : XviD 1.1.2 (UTC 2006-11-01)

Audio:

Format                           : AC-3
Format/Info                      : Audio Coding 3
Mode extension                   : CM (complete main)
Codec ID                         : 2000
Duration                         : 1h 25mn
Bit rate mode                    : Constant
Bit rate                         : 384 Kbps
Channel(s)                       : 6 channels
Channel positions                : Front: L C R, Side: L R, LFE
Sampling rate                    : 48.0 KHz
Bit depth                        : 16 bits
Compression mode                 : Lossy
Stream size                      : 234 MiB (16%)
Alignment                        : Aligned on interleaves
Interleave, duration             : 32 ms (0.80 video frame)
Interleave, preload duration     : 928 ms

